<?xml version="1.0" standalone="no"?>
<!DOCTYPE svg PUBLIC "-//W3C//DTD SVG 20010904//EN"
 "http://www.w3.org/TR/2001/REC-SVG-20010904/DTD/svg10.dtd">
<svg version="1.0" xmlns="http://www.w3.org/2000/svg"
 width="570.000000pt" height="570.000000pt" viewBox="0 0 570.000000 570.000000"
 preserveAspectRatio="xMidYMid meet">

<g transform="translate(0.000000,570.000000) scale(0.100000,-0.100000)"
fill="#000000" stroke="none">
<path d="M2615 5110 c-764 -86 -1418 -408 -1898 -935 -299 -328 -515 -670
-652 -1034 l-28 -73 1407 -1407 1406 -1406 1407 1407 1407 1407 -33 88 c-152
401 -421 824 -705 1108 -426 426 -1008 719 -1640 826 -138 23 -532 34 -671 19z
m660 -99 c539 -92 1025 -314 1430 -652 107 -88 306 -295 381 -394 190 -250
364 -558 459 -812 l26 -67 -1361 -1361 -1360 -1360 -1360 1360 -1360 1360 36
90 c145 361 362 686 669 1004 254 262 520 450 840 594 312 140 591 213 985
261 19 2 139 3 265 1 176 -2 258 -8 350 -24z"/>
<path d="M2645 3365 c-222 -35 -453 -126 -644 -252 -158 -105 -374 -343 -481
-529 -46 -80 -120 -246 -120 -268 0 -8 250 -263 555 -568 492 -490 555 -556
550 -578 -25 -120 -26 -135 -15 -198 14 -81 39 -131 96 -192 107 -114 285
-146 429 -75 153 74 240 271 191 430 l-16 50 558 557 c306 307 558 566 560
576 4 25 -65 183 -124 286 -159 277 -362 471 -641 612 -130 66 -323 130 -451
149 -117 18 -337 18 -447 0z m495 -90 c178 -39 369 -119 524 -222 131 -86 300
-254 385 -383 63 -95 171 -305 171 -331 0 -8 -241 -255 -535 -549 l-535 -534
-40 39 -40 39 310 311 c170 170 310 315 310 320 0 13 -822 835 -835 835 -6 0
-198 -188 -428 -418 l-417 -417 314 -315 314 -314 -40 -39 -41 -39 -524 523
c-288 288 -528 531 -533 540 -11 20 59 169 136 287 247 379 591 605 1030 677
112 18 367 13 474 -10z m155 -1605 l-290 -291 -40 8 c-52 10 -180 10 -225 0
l-35 -8 -290 291 -290 290 365 365 365 365 365 -365 365 -365 -290 -290z
m-319 -378 c66 -34 101 -69 133 -134 71 -142 14 -310 -131 -382 -103 -52 -244
-28 -327 55 -71 71 -99 187 -71 291 21 76 111 164 190 187 54 16 159 7 206
-17z"/>
<path d="M2785 2035 c-70 -33 -105 -87 -105 -163 0 -104 58 -172 155 -180 30
-2 65 -2 79 2 36 9 96 65 112 103 28 66 8 160 -42 204 -55 48 -139 62 -199 34z"/>
</g>
</svg>
